<svg xmlns="http://www.w3.org/2000/svg" xmlns:xlink="http://www.w3.org/1999/xlink" width="500" zoomAndPan="magnify" viewBox="0 0 375 374.999991" height="500" preserveAspectRatio="xMidYMid meet" version="1.0"><defs><g/><clipPath id="6117db1685"><rect x="0" width="266" y="0" height="142"/></clipPath></defs><rect x="-37.5" width="450" fill="#ffffff" y="-37.499999" height="449.999989" fill-opacity="1"/><rect x="-37.5" width="450" fill="#ffffff" y="-37.499999" height="449.999989" fill-opacity="1"/><g transform="matrix(1, 0, 0, 1, 60, 54)"><g clip-path="url(#6117db1685)"><g fill="#2c2c2c" fill-opacity="1"><g transform="translate(0.839089, 111.738456)"><g><path d="M 82.6875 0 L 82.578125 -48.234375 L 58.921875 -8.5 L 50.53125 -8.5 L 26.984375 -47.203125 L 26.984375 0 L 9.53125 0 L 9.53125 -80.390625 L 24.921875 -80.390625 L 55.015625 -30.4375 L 84.640625 -80.390625 L 99.921875 -80.390625 L 100.140625 0 Z M 82.6875 0 "/></g></g></g><g fill="#2c2c2c" fill-opacity="1"><g transform="translate(110.502225, 111.738456)"><g><path d="M 71.78125 -14.9375 L 71.78125 0 L 9.53125 0 L 9.53125 -80.390625 L 70.28125 -80.390625 L 70.28125 -65.46875 L 28.015625 -65.46875 L 28.015625 -48 L 65.34375 -48 L 65.34375 -33.53125 L 28.015625 -33.53125 L 28.015625 -14.9375 Z M 71.78125 -14.9375 "/></g></g></g><g fill="#2c2c2c" fill-opacity="1"><g transform="translate(187.55349, 111.738456)"><g><path d="M 71.78125 -14.9375 L 71.78125 0 L 9.53125 0 L 9.53125 -80.390625 L 70.28125 -80.390625 L 70.28125 -65.46875 L 28.015625 -65.46875 L 28.015625 -48 L 65.34375 -48 L 65.34375 -33.53125 L 28.015625 -33.53125 L 28.015625 -14.9375 Z M 71.78125 -14.9375 "/></g></g></g></g></g><g fill="#2c2c2c" fill-opacity="1"><g transform="translate(69.577034, 260.299877)"><g><path d="M 25.359375 -63.15625 L 0.4375 -63.15625 L 0.4375 -77.84375 L 68.28125 -77.84375 L 68.28125 -63.15625 L 43.375 -63.15625 L 43.375 0 L 25.359375 0 Z M 25.359375 -63.15625 "/></g></g></g><g fill="#2c2c2c" fill-opacity="1"><g transform="translate(137.186035, 260.299877)"><g><path d="M 46.921875 1.328125 C 38.847656 1.328125 31.566406 -0.410156 25.078125 -3.890625 C 18.585938 -7.378906 13.507812 -12.179688 9.84375 -18.296875 C 6.175781 -24.410156 4.34375 -31.285156 4.34375 -38.921875 C 4.34375 -46.554688 6.175781 -53.429688 9.84375 -59.546875 C 13.507812 -65.660156 18.585938 -70.457031 25.078125 -73.9375 C 31.566406 -77.425781 38.847656 -79.171875 46.921875 -79.171875 C 55.003906 -79.171875 62.269531 -77.425781 68.71875 -73.9375 C 75.164062 -70.457031 80.242188 -65.660156 83.953125 -59.546875 C 87.660156 -53.429688 89.515625 -46.554688 89.515625 -38.921875 C 89.515625 -31.285156 87.660156 -24.410156 83.953125 -18.296875 C 80.242188 -12.179688 75.164062 -7.378906 68.71875 -3.890625 C 62.269531 -0.410156 55.003906 1.328125 46.921875 1.328125 Z M 46.921875 -14.015625 C 51.523438 -14.015625 55.675781 -15.066406 59.375 -17.171875 C 63.082031 -19.285156 65.992188 -22.234375 68.109375 -26.015625 C 70.222656 -29.796875 71.28125 -34.097656 71.28125 -38.921875 C 71.28125 -43.742188 70.222656 -48.039062 68.109375 -51.8125 C 65.992188 -55.59375 63.082031 -58.539062 59.375 -60.65625 C 55.675781 -62.769531 51.523438 -63.828125 46.921875 -63.828125 C 42.328125 -63.828125 38.175781 -62.769531 34.46875 -60.65625 C 30.757812 -58.539062 27.847656 -55.59375 25.734375 -51.8125 C 23.628906 -48.039062 22.578125 -43.742188 22.578125 -38.921875 C 22.578125 -34.097656 23.628906 -29.796875 25.734375 -26.015625 C 27.847656 -22.234375 30.757812 -19.285156 34.46875 -17.171875 C 38.175781 -15.066406 42.328125 -14.015625 46.921875 -14.015625 Z M 46.921875 -14.015625 "/></g></g></g><g fill="#2c2c2c" fill-opacity="1"><g transform="translate(231.038155, 260.299877)"><g><path d="M 46.921875 1.328125 C 38.847656 1.328125 31.566406 -0.410156 25.078125 -3.890625 C 18.585938 -7.378906 13.507812 -12.179688 9.84375 -18.296875 C 6.175781 -24.410156 4.34375 -31.285156 4.34375 -38.921875 C 4.34375 -46.554688 6.175781 -53.429688 9.84375 -59.546875 C 13.507812 -65.660156 18.585938 -70.457031 25.078125 -73.9375 C 31.566406 -77.425781 38.847656 -79.171875 46.921875 -79.171875 C 55.003906 -79.171875 62.269531 -77.425781 68.71875 -73.9375 C 75.164062 -70.457031 80.242188 -65.660156 83.953125 -59.546875 C 87.660156 -53.429688 89.515625 -46.554688 89.515625 -38.921875 C 89.515625 -31.285156 87.660156 -24.410156 83.953125 -18.296875 C 80.242188 -12.179688 75.164062 -7.378906 68.71875 -3.890625 C 62.269531 -0.410156 55.003906 1.328125 46.921875 1.328125 Z M 46.921875 -14.015625 C 51.523438 -14.015625 55.675781 -15.066406 59.375 -17.171875 C 63.082031 -19.285156 65.992188 -22.234375 68.109375 -26.015625 C 70.222656 -29.796875 71.28125 -34.097656 71.28125 -38.921875 C 71.28125 -43.742188 70.222656 -48.039062 68.109375 -51.8125 C 65.992188 -55.59375 63.082031 -58.539062 59.375 -60.65625 C 55.675781 -62.769531 51.523438 -63.828125 46.921875 -63.828125 C 42.328125 -63.828125 38.175781 -62.769531 34.46875 -60.65625 C 30.757812 -58.539062 27.847656 -55.59375 25.734375 -51.8125 C 23.628906 -48.039062 22.578125 -43.742188 22.578125 -38.921875 C 22.578125 -34.097656 23.628906 -29.796875 25.734375 -26.015625 C 27.847656 -22.234375 30.757812 -19.285156 34.46875 -17.171875 C 38.175781 -15.066406 42.328125 -14.015625 46.921875 -14.015625 Z M 46.921875 -14.015625 "/></g></g></g></svg>